<svg width="51" height="50" viewBox="0 0 51 50" fill="none" xmlns="http://www.w3.org/2000/svg">
<g clip-path="url(#clip0_255_956)">
<path d="M43.7868 0H7.21317C3.50559 0 0.5 3.00559 0.5 6.71317V43.2868C0.5 46.9944 3.50559 50 7.21317 50H43.7868C47.4944 50 50.5 46.9944 50.5 43.2868V6.71317C50.5 3.00559 47.4944 0 43.7868 0Z" fill="#FBE300"/>
<path d="M21.3039 20.2044L19.9336 24.3849L22.7366 24.3768L21.3398 20.2044C21.3385 20.2006 21.3361 20.1973 21.3329 20.195C21.3297 20.1927 21.3258 20.1914 21.3218 20.1914C21.3179 20.1914 21.314 20.1927 21.3108 20.195C21.3075 20.1973 21.3052 20.2006 21.3039 20.2044Z" fill="#3B1E1E"/>
<path d="M25.3046 7.75791C14.7094 7.78841 6.13978 14.5997 6.16411 22.9691C6.17961 28.3507 9.74478 33.0674 15.1046 35.7409L13.3159 42.5009C13.2779 42.6135 13.2774 42.7353 13.3143 42.8482C13.3513 42.9611 13.4239 43.0589 13.5211 43.1272C13.6183 43.1954 13.735 43.2303 13.8538 43.2267C13.9725 43.2231 14.0869 43.1811 14.1798 43.1071L21.9421 37.8349C23.0851 37.9948 24.238 38.0733 25.3921 38.0697C35.9871 38.0392 44.5569 31.2296 44.533 22.8589C44.5089 14.4882 35.8998 7.72758 25.3046 7.75791ZM15.6754 26.9544C15.6771 27.5464 15.3266 27.9156 14.7603 27.9172C14.1939 27.9189 13.8421 27.5517 13.8404 26.9597L13.8213 20.2956L11.8911 20.3012C11.2856 20.3029 11.0694 19.8544 11.0683 19.4697C11.0647 19.3604 11.0832 19.2514 11.1228 19.1494C11.1624 19.0474 11.2222 18.9544 11.2986 18.8761C11.375 18.7978 11.4664 18.7357 11.5674 18.6936C11.6684 18.6515 11.7769 18.6302 11.8863 18.6311L17.5804 18.6144C17.6899 18.6128 17.7986 18.6333 17.9 18.6747C18.0013 18.7161 18.0933 18.7776 18.1703 18.8554C18.2473 18.9332 18.3078 19.0258 18.3482 19.1276C18.3885 19.2294 18.4079 19.3383 18.4051 19.4477C18.4061 19.8322 18.1921 20.2821 17.5853 20.2837L15.6563 20.2894L15.6754 26.9544ZM24.5573 27.8897C24.3569 27.9065 24.1571 27.852 23.993 27.7359C23.8289 27.6197 23.711 27.4494 23.6601 27.2549L23.2553 26.0011L19.4208 26.0121L19.0133 27.2539C18.9696 27.4506 18.8566 27.625 18.6949 27.7451C18.5331 27.8653 18.3335 27.9232 18.1326 27.9082C18.0173 27.9133 17.9022 27.8953 17.794 27.8554C17.6857 27.8154 17.5866 27.7542 17.5022 27.6755C17.4179 27.5967 17.3502 27.5019 17.3029 27.3967C17.2557 27.2914 17.2299 27.1778 17.2271 27.0624C17.2285 26.9239 17.2568 26.787 17.3104 26.6592L19.9538 19.5956C20.1431 19.0777 20.6001 18.5244 21.3158 18.5224C21.9446 18.5206 22.4439 18.9081 22.6856 19.5856L25.2876 26.6231C25.3474 26.7735 25.3829 26.9325 25.3928 27.0941C25.3913 27.2015 25.3684 27.3076 25.3254 27.4061C25.2823 27.5045 25.2201 27.5934 25.1423 27.6675C25.0645 27.7417 24.9726 27.7995 24.8722 27.8376C24.7717 27.8758 24.6647 27.8935 24.5573 27.8897ZM31.6049 26.9649C31.6006 27.0752 31.5745 27.1836 31.5281 27.2838C31.4818 27.384 31.416 27.474 31.3348 27.5487C31.2535 27.6234 31.1582 27.6813 31.0545 27.7191C30.9507 27.7568 30.8406 27.7737 30.7303 27.7687L27.3099 27.7784C26.7099 27.7802 26.3494 27.4014 26.3476 26.7656L26.3266 19.4656C26.3249 18.8746 26.6756 18.5062 27.2418 18.5047C27.8079 18.5032 28.1601 18.8692 28.1619 19.4604L28.1809 26.1059L30.7256 26.0986C30.8474 26.0927 30.9692 26.1122 31.083 26.1559C31.1969 26.1995 31.3005 26.2664 31.3871 26.3522C31.4631 26.4342 31.5216 26.5308 31.5591 26.6362C31.5965 26.7415 31.6121 26.8534 31.6049 26.9649ZM39.2463 27.1264C39.1766 27.7949 38.5296 27.8486 38.3326 27.8491C38.2848 27.8493 38.2369 27.847 38.1893 27.8424C37.8503 27.8091 37.6591 27.5962 37.3036 27.1192L34.8833 23.8396L34.2258 24.5139L34.2329 26.9846C34.2332 27.1031 34.2095 27.2205 34.1632 27.3297C34.1169 27.4388 34.0489 27.5375 33.9634 27.6196C33.878 27.7018 33.7767 27.7658 33.6659 27.8078C33.555 27.8498 33.4367 27.8689 33.3183 27.8639C32.7683 27.8656 32.3986 27.5139 32.3971 26.9897L32.3753 19.3939C32.3718 19.273 32.3931 19.1527 32.4381 19.0405C32.483 18.9282 32.5506 18.8264 32.6366 18.7414C32.7225 18.6563 32.8251 18.5899 32.9378 18.5462C33.0506 18.5025 33.1711 18.4824 33.2919 18.4872C33.4133 18.479 33.535 18.4965 33.6491 18.5386C33.7632 18.5808 33.8671 18.6465 33.954 18.7317C34.0408 18.8168 34.1087 18.9193 34.1531 19.0325C34.1976 19.1458 34.2176 19.2671 34.2118 19.3886L34.2201 22.3294L37.4426 18.9507C37.5351 18.8483 37.6474 18.7656 37.7727 18.7076C37.8979 18.6496 38.0336 18.6176 38.1716 18.6134C38.6151 18.6239 39.0619 18.9172 39.0518 19.4571C39.0518 19.7094 38.9018 19.8764 38.6018 20.2089C38.5339 20.2842 38.4591 20.3672 38.3781 20.4602L36.1753 22.6956L38.7984 26.1097C39.0694 26.4612 39.2941 26.7521 39.2463 27.1264Z" fill="#3B1E1E"/>
</g>
<defs>
<clipPath id="clip0_255_956">
<rect width="50" height="50" fill="white" transform="translate(0.5)"/>
</clipPath>
</defs>
</svg>
