<svg width="101" height="101" viewBox="0 0 101 101" fill="none" xmlns="http://www.w3.org/2000/svg">
<rect x="1" y="1" width="99" height="99" rx="7" fill="#F3F4F6"/>
<rect x="1" y="1" width="99" height="99" rx="7" stroke="#D1D5DB" stroke-width="2" stroke-dasharray="6 4"/>
<path d="M41.1641 39.5H59.8307" stroke="#9CA3AF" stroke-width="2.66667" stroke-linecap="round" stroke-linejoin="round"/>
<path d="M50.5 30.1641V48.8307" stroke="#9CA3AF" stroke-width="2.66667" stroke-linecap="round" stroke-linejoin="round"/>
<path d="M26.8379 60.916H28.0279V63.016C28.0279 63.7533 27.9439 64.4813 27.7759 65.2C27.6173 65.9093 27.3839 66.572 27.0759 67.188C26.7773 67.804 26.4086 68.3547 25.9699 68.84C25.5313 69.316 25.0366 69.694 24.4859 69.974L23.6039 68.784C24.0986 68.5413 24.5466 68.2193 24.9479 67.818C25.3493 67.4073 25.6899 66.9453 25.9699 66.432C26.2499 65.9093 26.4646 65.3587 26.6139 64.78C26.7633 64.192 26.8379 63.604 26.8379 63.016V60.916ZM27.1039 60.916H28.2939V63.016C28.2939 63.5853 28.3639 64.15 28.5039 64.71C28.6439 65.2607 28.8493 65.788 29.1199 66.292C29.3999 66.7867 29.7313 67.23 30.1139 67.622C30.4966 68.014 30.9259 68.3267 31.4019 68.56L30.5059 69.736C29.9739 69.456 29.4979 69.0873 29.0779 68.63C28.6673 68.1633 28.3126 67.6313 28.0139 67.034C27.7246 66.4367 27.5006 65.7973 27.3419 65.116C27.1833 64.4347 27.1039 63.7347 27.1039 63.016V60.916ZM32.2559 59.866H33.7259V72.662H32.2559V59.866ZM33.4039 64.92H35.7139V66.152H33.4039V64.92ZM39.9688 61.266H41.1728V62.484C41.1728 63.268 41.0282 64.01 40.7388 64.71C40.4588 65.4007 40.0482 66.0073 39.5068 66.53C38.9748 67.0433 38.3262 67.4353 37.5608 67.706L36.8048 66.544C37.4862 66.3107 38.0602 65.9887 38.5268 65.578C38.9935 65.158 39.3482 64.682 39.5908 64.15C39.8428 63.6087 39.9688 63.0533 39.9688 62.484V61.266ZM40.2628 61.266H41.4668V62.484C41.4668 62.8947 41.5322 63.296 41.6628 63.688C41.8028 64.0707 42.0082 64.4347 42.2788 64.78C42.5495 65.116 42.8762 65.4193 43.2588 65.69C43.6508 65.9513 44.0942 66.1613 44.5888 66.32L43.8328 67.454C43.0862 67.202 42.4468 66.8333 41.9148 66.348C41.3828 65.8533 40.9722 65.2747 40.6828 64.612C40.4028 63.94 40.2628 63.2307 40.2628 62.484V61.266ZM37.1968 60.846H44.1828V62.036H37.1968V60.846ZM45.7648 59.866H47.2348V69.176H45.7648V59.866ZM38.8908 71.206H47.5988V72.396H38.8908V71.206ZM38.8908 68.322H40.3468V71.766H38.8908V68.322ZM57.7563 68.014H59.2123V72.676H57.7563V68.014ZM52.7163 67.566H64.2803V68.77H52.7163V67.566ZM57.7563 62.106H59.0443V62.414C59.0443 62.8527 58.9603 63.268 58.7923 63.66C58.6336 64.052 58.4003 64.4207 58.0923 64.766C57.7936 65.102 57.4296 65.4053 57.0003 65.676C56.5709 65.9373 56.0949 66.1613 55.5723 66.348C55.0496 66.5253 54.4896 66.6513 53.8923 66.726L53.3743 65.564C53.8876 65.4987 54.3683 65.396 54.8163 65.256C55.2643 65.116 55.6656 64.9433 56.0203 64.738C56.3843 64.5233 56.6923 64.2947 56.9443 64.052C57.2056 63.8 57.4063 63.5387 57.5463 63.268C57.6863 62.988 57.7563 62.7033 57.7563 62.414V62.106ZM57.9383 62.106H59.2263V62.414C59.2263 62.694 59.2963 62.974 59.4363 63.254C59.5763 63.5247 59.7723 63.786 60.0243 64.038C60.2856 64.29 60.5936 64.5187 60.9483 64.724C61.3123 64.9293 61.7136 65.1067 62.1523 65.256C62.6003 65.396 63.0809 65.4987 63.5943 65.564L63.0763 66.726C62.4789 66.6513 61.9189 66.5253 61.3963 66.348C60.8736 66.1613 60.3976 65.9327 59.9683 65.662C59.5483 65.3913 59.1843 65.088 58.8763 64.752C58.5776 64.4067 58.3443 64.038 58.1763 63.646C58.0176 63.254 57.9383 62.8433 57.9383 62.414V62.106ZM53.8083 61.378H63.1883V62.554H53.8083V61.378ZM57.7563 59.88H59.2123V61.784H57.7563V59.88ZM74.0372 59.852H75.5072V72.648H74.0372V59.852ZM75.1292 64.906H77.4392V66.124H75.1292V64.906ZM70.7332 61.21H72.1612C72.1612 62.4513 71.9698 63.6367 71.5872 64.766C71.2138 65.886 70.6025 66.9173 69.7532 67.86C68.9132 68.8027 67.7932 69.624 66.3932 70.324L65.5812 69.204C66.7385 68.6067 67.6952 67.9253 68.4512 67.16C69.2165 66.3947 69.7858 65.536 70.1592 64.584C70.5418 63.632 70.7332 62.5867 70.7332 61.448V61.21ZM66.2252 61.21H71.4892V62.4H66.2252V61.21Z" fill="#9CA3AF"/>
</svg>
