<svg width="101" height="101" viewBox="0 0 101 101" fill="none" xmlns="http://www.w3.org/2000/svg">
<rect x="1" y="1" width="99" height="99" rx="7" fill="#F3F4F6"/>
<rect x="1" y="1" width="99" height="99" rx="7" stroke="#D1D5DB" stroke-width="2" stroke-dasharray="6 4"/>
<path d="M41.1641 39.5H59.8307" stroke="#9CA3AF" stroke-width="2.66667" stroke-linecap="round" stroke-linejoin="round"/>
<path d="M50.5 30.1641V48.8307" stroke="#9CA3AF" stroke-width="2.66667" stroke-linecap="round" stroke-linejoin="round"/>
<path d="M17.0342 61.14H25.1962V62.316H17.0342V61.14ZM15.8022 69.666H27.3662V70.87H15.8022V69.666ZM24.4262 61.14H25.8822V62.526C25.8822 63.086 25.8729 63.674 25.8542 64.29C25.8449 64.8967 25.8075 65.564 25.7422 66.292C25.6769 67.0107 25.5649 67.8227 25.4062 68.728L23.9362 68.588C24.1042 67.7387 24.2209 66.9593 24.2862 66.25C24.3515 65.5407 24.3889 64.878 24.3982 64.262C24.4169 63.646 24.4262 63.0673 24.4262 62.526V61.14ZM35.2136 66.264H36.6836V69.064H35.2136V66.264ZM35.9556 60.65C36.6276 60.65 37.225 60.7807 37.7476 61.042C38.2703 61.3033 38.681 61.6673 38.9796 62.134C39.2783 62.5913 39.4276 63.1187 39.4276 63.716C39.4276 64.3133 39.2783 64.8453 38.9796 65.312C38.681 65.7787 38.2703 66.1427 37.7476 66.404C37.225 66.6653 36.6276 66.796 35.9556 66.796C35.293 66.796 34.7003 66.6653 34.1776 66.404C33.655 66.1427 33.2396 65.7787 32.9316 65.312C32.633 64.8453 32.4836 64.3133 32.4836 63.716C32.4836 63.1187 32.633 62.5913 32.9316 62.134C33.2396 61.6673 33.655 61.3033 34.1776 61.042C34.7003 60.7807 35.293 60.65 35.9556 60.65ZM35.9556 61.91C35.573 61.91 35.223 61.9847 34.9056 62.134C34.5976 62.2833 34.355 62.4933 34.1776 62.764C34.0003 63.0347 33.9116 63.352 33.9116 63.716C33.9116 64.0893 34.0003 64.416 34.1776 64.696C34.355 64.9667 34.5976 65.1767 34.9056 65.326C35.223 65.466 35.573 65.536 35.9556 65.536C36.3476 65.536 36.693 65.466 36.9916 65.326C37.2996 65.1767 37.5423 64.9667 37.7196 64.696C37.897 64.416 37.9856 64.0893 37.9856 63.716C37.9856 63.352 37.897 63.0347 37.7196 62.764C37.5423 62.4933 37.2996 62.2833 36.9916 62.134C36.693 61.9847 36.3476 61.91 35.9556 61.91ZM40.8836 59.852H42.3536V72.676H40.8836V59.852ZM32.0776 69.988L31.8816 68.784C32.6563 68.784 33.5056 68.7793 34.4296 68.77C35.3536 68.7513 36.301 68.714 37.2716 68.658C38.2516 68.5927 39.199 68.49 40.1136 68.35L40.2256 69.428C39.283 69.6053 38.3263 69.736 37.3556 69.82C36.3943 69.8947 35.461 69.9413 34.5556 69.96C33.6503 69.9787 32.8243 69.988 32.0776 69.988ZM56.9071 59.852H58.3771V72.676H56.9071V59.852ZM51.5731 60.79C52.2077 60.79 52.7724 60.9767 53.2671 61.35C53.7711 61.7233 54.1631 62.246 54.4431 62.918C54.7231 63.59 54.8631 64.3833 54.8631 65.298C54.8631 66.222 54.7231 67.0247 54.4431 67.706C54.1631 68.378 53.7711 68.9007 53.2671 69.274C52.7724 69.638 52.2077 69.82 51.5731 69.82C50.9384 69.82 50.3691 69.638 49.8651 69.274C49.3704 68.9007 48.9784 68.378 48.6891 67.706C48.4091 67.0247 48.2691 66.222 48.2691 65.298C48.2691 64.3833 48.4091 63.59 48.6891 62.918C48.9784 62.246 49.3704 61.7233 49.8651 61.35C50.3691 60.9767 50.9384 60.79 51.5731 60.79ZM51.5731 62.12C51.1997 62.12 50.8684 62.246 50.5791 62.498C50.2991 62.75 50.0797 63.114 49.9211 63.59C49.7624 64.066 49.6831 64.6353 49.6831 65.298C49.6831 65.97 49.7624 66.544 49.9211 67.02C50.0797 67.496 50.2991 67.8647 50.5791 68.126C50.8684 68.378 51.1997 68.504 51.5731 68.504C51.9464 68.504 52.2731 68.378 52.5531 68.126C52.8331 67.8647 53.0524 67.496 53.2111 67.02C53.3697 66.544 53.4491 65.97 53.4491 65.298C53.4491 64.6353 53.3697 64.066 53.2111 63.59C53.0524 63.114 52.8331 62.75 52.5531 62.498C52.2731 62.246 51.9464 62.12 51.5731 62.12ZM61.414 61.056H67.406V69.512H61.414V61.056ZM65.978 62.232H62.856V68.35H65.978V62.232ZM69.786 59.852H71.256V72.676H69.786V59.852ZM76.8549 61.77H78.0309V63.562C78.0309 64.2713 77.9469 64.9667 77.7789 65.648C77.6109 66.32 77.3636 66.9547 77.0369 67.552C76.7196 68.1493 76.3369 68.6767 75.8889 69.134C75.4409 69.5913 74.9462 69.9553 74.4049 70.226L73.5509 69.064C74.0456 68.8307 74.4936 68.518 74.8949 68.126C75.3056 67.734 75.6556 67.2907 75.9449 66.796C76.2342 66.292 76.4582 65.7647 76.6169 65.214C76.7756 64.6633 76.8549 64.1127 76.8549 63.562V61.77ZM77.1629 61.77H78.3389V63.562C78.3389 64.094 78.4182 64.6213 78.5769 65.144C78.7356 65.6667 78.9596 66.1613 79.2489 66.628C79.5382 67.0947 79.8836 67.51 80.2849 67.874C80.6862 68.238 81.1389 68.5273 81.6429 68.742L80.8309 69.904C80.2709 69.652 79.7669 69.3113 79.3189 68.882C78.8709 68.4527 78.4836 67.958 78.1569 67.398C77.8396 66.8287 77.5922 66.222 77.4149 65.578C77.2469 64.9247 77.1629 64.2527 77.1629 63.562V61.77ZM74.0129 61.126H81.1809V62.344H74.0129V61.126ZM82.6649 59.866H84.1349V72.662H82.6649V59.866Z" fill="#9CA3AF"/>
</svg>
