<svg width="26" height="28" viewBox="0 0 26 28" fill="none" xmlns="http://www.w3.org/2000/svg">
<g id="ph:files">
<path id="Vector" d="M23.7075 6.12594L18.7075 0.933633C18.6146 0.837228 18.5042 0.760783 18.3829 0.708665C18.2615 0.656546 18.1314 0.629776 18 0.629883H8C7.46957 0.629883 6.96086 0.848701 6.58579 1.2382C6.21071 1.6277 6 2.15597 6 2.70681V4.78373H4C3.46957 4.78373 2.96086 5.00255 2.58579 5.39205C2.21071 5.78154 2 6.30982 2 6.86065V25.553C2 26.1038 2.21071 26.6321 2.58579 27.0216C2.96086 27.4111 3.46957 27.6299 4 27.6299H18C18.5304 27.6299 19.0391 27.4111 19.4142 27.0216C19.7893 26.6321 20 26.1038 20 25.553V23.476H22C22.5304 23.476 23.0391 23.2572 23.4142 22.8677C23.7893 22.4782 24 21.9499 24 21.3991V6.86065C24.0001 6.72424 23.9743 6.58914 23.9241 6.46308C23.8739 6.33701 23.8003 6.22245 23.7075 6.12594ZM18 25.553H4V6.86065H13.5863L18 11.4442V25.553ZM22 21.3991H20V11.0145C20.0001 10.8781 19.9743 10.743 19.9241 10.6169C19.8739 10.4909 19.8003 10.3763 19.7075 10.2798L14.7075 5.08748C14.6146 4.99107 14.5042 4.91463 14.3829 4.86251C14.2615 4.81039 14.1314 4.78362 14 4.78373H8V2.70681H17.5863L22 7.29032V21.3991ZM15 17.2453C15 17.5207 14.8946 17.7848 14.7071 17.9796C14.5196 18.1743 14.2652 18.2837 14 18.2837H8C7.73478 18.2837 7.48043 18.1743 7.29289 17.9796C7.10536 17.7848 7 17.5207 7 17.2453C7 16.9699 7.10536 16.7057 7.29289 16.511C7.48043 16.3162 7.73478 16.2068 8 16.2068H14C14.2652 16.2068 14.5196 16.3162 14.7071 16.511C14.8946 16.7057 15 16.9699 15 17.2453ZM15 21.3991C15 21.6745 14.8946 21.9387 14.7071 22.1334C14.5196 22.3282 14.2652 22.4376 14 22.4376H8C7.73478 22.4376 7.48043 22.3282 7.29289 22.1334C7.10536 21.9387 7 21.6745 7 21.3991C7 21.1237 7.10536 20.8596 7.29289 20.6648C7.48043 20.4701 7.73478 20.3607 8 20.3607H14C14.2652 20.3607 14.5196 20.4701 14.7071 20.6648C14.8946 20.8596 15 21.1237 15 21.3991Z" fill="#6A9C89"/>
</g>
</svg>
