<svg width="25" height="25" viewBox="0 0 25 25" fill="none" xmlns="http://www.w3.org/2000/svg">
<g id="More">
<path id="Border" d="M12.8283 24.5342C19.4323 24.5342 24.7883 19.2378 24.7883 12.7014C24.7883 6.16497 19.4323 0.868571 12.8283 0.868571C6.22434 0.868571 0.868327 6.16497 0.868327 12.7014C0.868327 19.2378 6.22434 24.5342 12.8283 24.5342Z" stroke="#383F45" stroke-width="0.262857"/>
<g id="chevron-down">
<path id="Shape" d="M12.8284 11.6706L15.8097 15.1114C16.0297 15.3652 16.3863 15.3652 16.6063 15.1114C16.8262 14.8575 16.8262 14.4459 16.6063 14.192L13.2267 10.2915C13.0067 10.0377 12.6501 10.0377 12.4301 10.2915L9.0505 14.192C8.83053 14.4459 8.83053 14.8575 9.0505 15.1114C9.27047 15.3652 9.62711 15.3652 9.84708 15.1114L12.8284 11.6706Z" fill="#383F45"/>
<mask id="mask0_409_7176" style="mask-type:luminance" maskUnits="userSpaceOnUse" x="8" y="10" width="9" height="6">
<path id="Shape_2" d="M12.8284 11.6706L15.8097 15.1114C16.0297 15.3652 16.3863 15.3652 16.6063 15.1114C16.8262 14.8575 16.8262 14.4459 16.6063 14.192L13.2267 10.2915C13.0067 10.0377 12.6501 10.0377 12.4301 10.2915L9.0505 14.192C8.83053 14.4459 8.83053 14.8575 9.0505 15.1114C9.27047 15.3652 9.62711 15.3652 9.84708 15.1114L12.8284 11.6706Z" fill="white"/>
</mask>
<g mask="url(#mask0_409_7176)">
</g>
</g>
</g>
</svg>
