<svg width="19" height="19" viewBox="0 0 19 19" fill="none" xmlns="http://www.w3.org/2000/svg">
<path fill-rule="evenodd" clip-rule="evenodd" d="M9.5 9.5C9.00812 9.5 8.60938 9.89875 8.60938 10.3906C8.60938 10.8825 9.00812 11.2812 9.5 11.2812C9.99188 11.2812 10.3906 10.8825 10.3906 10.3906C10.3906 9.89875 9.99188 9.5 9.5 9.5ZM7.42188 10.3906C7.42188 9.24291 8.35228 8.3125 9.5 8.3125C10.6477 8.3125 11.5781 9.24291 11.5781 10.3906C11.5781 11.5383 10.6477 12.4688 9.5 12.4688C8.35228 12.4688 7.42188 11.5383 7.42188 10.3906Z" fill="#596066"/>
<path fill-rule="evenodd" clip-rule="evenodd" d="M9.5 11.2812C9.82792 11.2812 10.0938 11.5471 10.0938 11.875V13.6562C10.0938 13.9842 9.82792 14.25 9.5 14.25C9.17208 14.25 8.90625 13.9842 8.90625 13.6562V11.875C8.90625 11.5471 9.17208 11.2812 9.5 11.2812Z" fill="#596066"/>
<path fill-rule="evenodd" clip-rule="evenodd" d="M2.375 7.125C2.375 6.46916 2.90666 5.9375 3.5625 5.9375H15.4375C16.0933 5.9375 16.625 6.46916 16.625 7.125V15.4375C16.625 16.0933 16.0933 16.625 15.4375 16.625H3.5625C2.90666 16.625 2.375 16.0933 2.375 15.4375V7.125ZM15.4375 7.125H3.5625V15.4375H15.4375V7.125Z" fill="#596066"/>
<path fill-rule="evenodd" clip-rule="evenodd" d="M9.5 1.78125C8.94885 1.78125 8.42027 2.00019 8.03054 2.38992C7.64082 2.77964 7.42188 3.30822 7.42188 3.85938V6.53125C7.42188 6.85917 7.15604 7.125 6.82812 7.125C6.50021 7.125 6.23438 6.85917 6.23438 6.53125V3.85938C6.23438 2.99328 6.57843 2.16265 7.19085 1.55023C7.80328 0.937806 8.6339 0.59375 9.5 0.59375C10.3661 0.59375 11.1967 0.937806 11.8091 1.55023C12.4216 2.16265 12.7656 2.99328 12.7656 3.85938V6.53125C12.7656 6.85917 12.4998 7.125 12.1719 7.125C11.844 7.125 11.5781 6.85917 11.5781 6.53125V3.85938C11.5781 3.30822 11.3592 2.77964 10.9695 2.38992C10.5797 2.00019 10.0512 1.78125 9.5 1.78125Z" fill="#596066"/>
</svg>
