<svg width="19" height="19" viewBox="0 0 19 19" fill="none" xmlns="http://www.w3.org/2000/svg">
<path fill-rule="evenodd" clip-rule="evenodd" d="M11.5781 9.5C11.5781 9.82792 11.3123 10.0937 10.9844 10.0937L2.96875 10.0937C2.64083 10.0937 2.375 9.82792 2.375 9.5C2.375 9.17208 2.64083 8.90625 2.96875 8.90625L10.9844 8.90625C11.3123 8.90625 11.5781 9.17208 11.5781 9.5Z" fill="#596066"/>
<path fill-rule="evenodd" clip-rule="evenodd" d="M16.625 9.5C16.625 9.82792 16.3592 10.0937 16.0312 10.0937L13.9531 10.0937C13.6252 10.0937 13.3594 9.82792 13.3594 9.5C13.3594 9.17208 13.6252 8.90625 13.9531 8.90625L16.0312 8.90625C16.3592 8.90625 16.625 9.17208 16.625 9.5Z" fill="#596066"/>
<path fill-rule="evenodd" clip-rule="evenodd" d="M13.3594 9.5C13.3594 9.00812 12.9606 8.60937 12.4687 8.60937C11.9769 8.60937 11.5781 9.00812 11.5781 9.5C11.5781 9.99188 11.9769 10.3906 12.4687 10.3906C12.9606 10.3906 13.3594 9.99188 13.3594 9.5ZM12.4688 7.42187C13.6165 7.42187 14.5469 8.35228 14.5469 9.5C14.5469 10.6477 13.6165 11.5781 12.4687 11.5781C11.321 11.5781 10.3906 10.6477 10.3906 9.5C10.3906 8.35228 11.321 7.42187 12.4688 7.42187Z" fill="#596066"/>
<path fill-rule="evenodd" clip-rule="evenodd" d="M5.64062 14.8438C5.64062 15.1717 5.37479 15.4375 5.04687 15.4375L2.96875 15.4375C2.64083 15.4375 2.375 15.1717 2.375 14.8437C2.375 14.5158 2.64083 14.25 2.96875 14.25L5.04688 14.25C5.37479 14.25 5.64062 14.5158 5.64062 14.8438Z" fill="#596066"/>
<path fill-rule="evenodd" clip-rule="evenodd" d="M16.625 14.8438C16.625 15.1717 16.3592 15.4375 16.0312 15.4375L8.01562 15.4375C7.68771 15.4375 7.42187 15.1717 7.42187 14.8437C7.42187 14.5158 7.68771 14.25 8.01562 14.25L16.0312 14.25C16.3592 14.25 16.625 14.5158 16.625 14.8438Z" fill="#596066"/>
<path fill-rule="evenodd" clip-rule="evenodd" d="M7.42187 14.8437C7.42187 14.3519 7.02313 13.9531 6.53125 13.9531C6.03937 13.9531 5.64062 14.3519 5.64062 14.8437C5.64062 15.3356 6.03937 15.7344 6.53125 15.7344C7.02313 15.7344 7.42187 15.3356 7.42187 14.8437ZM6.53125 12.7656C7.67897 12.7656 8.60937 13.696 8.60937 14.8438C8.60937 15.9915 7.67897 16.9219 6.53125 16.9219C5.38353 16.9219 4.45312 15.9915 4.45312 14.8437C4.45312 13.696 5.38353 12.7656 6.53125 12.7656Z" fill="#596066"/>
<path fill-rule="evenodd" clip-rule="evenodd" d="M8.01562 4.15625C8.01562 4.48417 7.74979 4.75 7.42187 4.75L2.96875 4.75C2.64083 4.75 2.375 4.48417 2.375 4.15625C2.375 3.82833 2.64083 3.5625 2.96875 3.5625L7.42188 3.5625C7.74979 3.5625 8.01562 3.82833 8.01562 4.15625Z" fill="#596066"/>
<path fill-rule="evenodd" clip-rule="evenodd" d="M16.625 4.15625C16.625 4.48417 16.3592 4.75 16.0312 4.75L10.3906 4.75C10.0627 4.75 9.79687 4.48417 9.79687 4.15625C9.79687 3.82833 10.0627 3.5625 10.3906 3.5625L16.0312 3.5625C16.3592 3.5625 16.625 3.82833 16.625 4.15625Z" fill="#596066"/>
<path fill-rule="evenodd" clip-rule="evenodd" d="M9.79687 4.15625C9.79687 3.66437 9.39813 3.26562 8.90625 3.26562C8.41437 3.26562 8.01562 3.66437 8.01562 4.15625C8.01562 4.64813 8.41437 5.04687 8.90625 5.04687C9.39813 5.04687 9.79687 4.64813 9.79687 4.15625ZM8.90625 2.07812C10.054 2.07812 10.9844 3.00853 10.9844 4.15625C10.9844 5.30397 10.054 6.23437 8.90625 6.23437C7.75853 6.23437 6.82812 5.30397 6.82812 4.15625C6.82812 3.00853 7.75853 2.07812 8.90625 2.07812Z" fill="#596066"/>
</svg>
