<svg width="40" height="46" viewBox="0 0 40 46" fill="none" xmlns="http://www.w3.org/2000/svg">
<path d="M10 20.9165V12.5832C10 9.8205 11.0536 7.17098 12.9289 5.21747C14.8043 3.26397 17.3478 2.1665 20 2.1665C22.6522 2.1665 25.1957 3.26397 27.0711 5.21747C28.9464 7.17098 30 9.8205 30 12.5832V20.9165M6 20.9165H34C36.2091 20.9165 38 22.782 38 25.0832V39.6665C38 41.9677 36.2091 43.8332 34 43.8332H6C3.79086 43.8332 2 41.9677 2 39.6665V25.0832C2 22.782 3.79086 20.9165 6 20.9165Z" stroke="#1E1E1E" stroke-width="4" stroke-linecap="round" stroke-linejoin="round"/>
</svg>
