<svg width="18" height="18" viewBox="0 0 18 18" fill="none" xmlns="http://www.w3.org/2000/svg">
<path d="M2.33333 1.5H15.6667C15.8877 1.5 16.0996 1.5878 16.2559 1.74408C16.4122 1.90036 16.5 2.11232 16.5 2.33333V3.655C16.5 3.876 16.4121 4.08792 16.2558 4.24417L10.9108 9.58917C10.7545 9.74541 10.6667 9.95734 10.6667 10.1783V15.4325C10.6667 15.5592 10.6378 15.6842 10.5822 15.798C10.5267 15.9118 10.4459 16.0115 10.346 16.0894C10.2461 16.1674 10.1298 16.2215 10.0059 16.2477C9.88198 16.274 9.75371 16.2716 9.63083 16.2408L7.96417 15.8242C7.78396 15.779 7.62401 15.675 7.50971 15.5285C7.39542 15.3821 7.33334 15.2016 7.33333 15.0158V10.1783C7.33329 9.95734 7.24546 9.74541 7.08917 9.58917L1.74417 4.24417C1.58788 4.08792 1.50005 3.876 1.5 3.655V2.33333C1.5 2.11232 1.5878 1.90036 1.74408 1.74408C1.90036 1.5878 2.11232 1.5 2.33333 1.5Z" stroke="white" stroke-width="1.6" stroke-linecap="round" stroke-linejoin="round"/>
</svg>
