<svg width="24" height="24" viewBox="0 0 24 24" fill="none" xmlns="http://www.w3.org/2000/svg">
<path d="M3.11111 5.57143L9.89737 10.5131L9.89964 10.515C10.6532 11.0478 11.0302 11.3144 11.4431 11.4174C11.808 11.5084 12.1917 11.5084 12.5566 11.4174C12.9699 11.3143 13.348 11.0469 14.1029 10.5131C14.1029 10.5131 18.4556 7.29208 20.8889 5.57143M2 16.0716V7.92878C2 6.72867 2 6.12816 2.24221 5.66978C2.45526 5.26658 2.79497 4.939 3.21311 4.73356C3.68847 4.5 4.31121 4.5 5.55577 4.5H18.4447C19.6892 4.5 20.3106 4.5 20.786 4.73356C21.2041 4.939 21.545 5.26658 21.758 5.66978C22 6.12772 22 6.72749 22 7.92526V16.0753C22 17.273 22 17.8719 21.758 18.3299C21.545 18.7331 21.2041 19.0612 20.786 19.2667C20.3111 19.5 19.69 19.5 18.4479 19.5H5.55212C4.30999 19.5 3.688 19.5 3.21311 19.2667C2.79497 19.0612 2.45526 18.7331 2.24221 18.3299C2 17.8715 2 17.2718 2 16.0716Z" stroke="#6A9C89" stroke-width="2" stroke-linecap="round" stroke-linejoin="round"/>
</svg>
