<svg width="20" height="20" viewBox="0 0 20 20" fill="none" xmlns="http://www.w3.org/2000/svg">
    <g transform="rotate(180 10 10)">
        <path d="M10.8839 2.73568C10.6495 2.5016 10.3318 2.37012 10.0006 2.37012C9.66931 2.37012 9.3516 2.5016 9.11722 2.73568L4.40139 7.44902C4.16689 7.68351 4.03516 8.00156 4.03516 8.33318C4.03516 8.66481 4.16689 8.98286 4.40139 9.21735C4.63589 9.45185 4.95393 9.58358 5.28556 9.58358C5.61718 9.58358 5.93523 9.45185 6.16972 9.21735L8.75056 6.63735V16.2499C8.75056 16.5814 8.88225 16.8993 9.11667 17.1337C9.35109 17.3682 9.66904 17.4999 10.0006 17.4999C10.3321 17.4999 10.65 17.3682 10.8844 17.1337C11.1189 16.8993 11.2506 16.5814 11.2506 16.2499V6.63735L13.8306 9.21735C13.9467 9.33346 14.0845 9.42556 14.2362 9.4884C14.3879 9.55124 14.5505 9.58358 14.7147 9.58358C14.8789 9.58358 15.0415 9.55124 15.1932 9.4884C15.3449 9.42556 15.4828 9.33346 15.5989 9.21735C15.715 9.10124 15.8071 8.9634 15.8699 8.81169C15.9328 8.65999 15.9651 8.49739 15.9651 8.33318C15.9651 8.16898 15.9328 8.00638 15.8699 7.85468C15.8071 7.70297 15.715 7.56513 15.5989 7.44902L10.8839 2.73568Z" fill="#007BFF"/>
    </g>
</svg>
