<svg width="20" height="20" viewBox="0 0 20 20" fill="none" xmlns="http://www.w3.org/2000/svg">
<path d="M2.79936 11.4824C4.32234 12.9566 6.97838 15 10.0002 15C13.022 15 15.6775 12.9566 17.2005 11.4824C17.6021 11.0936 17.8037 10.8985 17.9316 10.5168C18.0228 10.2444 18.0228 9.75565 17.9316 9.48328C17.8037 9.10154 17.6022 8.90645 17.2005 8.51761C15.6775 7.04342 13.022 5 10.0002 5C6.97838 5 4.32234 7.04342 2.79936 8.51761C2.39739 8.90671 2.19638 9.1014 2.06844 9.48328C1.97719 9.75564 1.97719 10.2444 2.06844 10.5168C2.19638 10.8987 2.39739 11.0933 2.79936 11.4824Z" stroke="#676E76" stroke-width="1.5" stroke-linecap="round" stroke-linejoin="round"/>
<path d="M8.28827 10C8.28827 10.9205 9.05465 11.6667 10 11.6667C10.9454 11.6667 11.7118 10.9205 11.7118 10C11.7118 9.07955 10.9454 8.33336 10 8.33336C9.05465 8.33336 8.28827 9.07955 8.28827 10Z" stroke="#676E76" stroke-width="1.5" stroke-linecap="round" stroke-linejoin="round"/>
</svg>
