<svg width="236" height="235" viewBox="0 0 236 235" fill="none" xmlns="http://www.w3.org/2000/svg">
<circle cx="118.281" cy="117.75" r="101.532" stroke="#91524B" stroke-width="9.42015"/>
<g clip-path="url(#clip0_466_131)">
<path d="M118.086 126.696C119.571 126.696 120.996 126.123 122.046 125.102C123.096 124.081 123.686 122.696 123.686 121.252V88.5851C123.686 87.1411 123.096 85.7563 122.046 84.7353C120.996 83.7142 119.571 83.1406 118.086 83.1406C116.601 83.1406 115.176 83.7142 114.126 84.7353C113.076 85.7563 112.486 87.1411 112.486 88.5851V121.252C112.486 122.696 113.076 124.081 114.126 125.102C115.176 126.123 116.601 126.696 118.086 126.696ZM118.086 148.474C119.47 148.474 120.824 148.075 121.975 147.327C123.126 146.579 124.023 145.516 124.553 144.273C125.083 143.029 125.222 141.661 124.951 140.341C124.681 139.021 124.015 137.808 123.036 136.856C122.057 135.904 120.809 135.256 119.452 134.994C118.094 134.731 116.686 134.866 115.407 135.381C114.128 135.896 113.035 136.768 112.266 137.887C111.496 139.007 111.086 140.322 111.086 141.668C111.086 143.473 111.823 145.204 113.136 146.481C114.449 147.757 116.229 148.474 118.086 148.474Z" fill="#91524B"/>
</g>
<defs>
<clipPath id="clip0_466_131">
<rect width="84" height="84" fill="white" transform="translate(75.8906 75.3594)"/>
</clipPath>
</defs>
</svg>
