<svg width="150" height="150" viewBox="0 0 150 150" fill="none" xmlns="http://www.w3.org/2000/svg">
<circle cx="75.0002" cy="74.9993" r="65.1316" stroke="#596066" stroke-width="5.07519"/>
<g clip-path="url(#clip0_2942_7796)">
<path fill-rule="evenodd" clip-rule="evenodd" d="M59.8125 53.0625V96.9375H79.2188C79.8901 96.9375 80.5339 97.2042 81.0086 97.6789C81.4833 98.1536 81.75 98.7974 81.75 99.4688C81.75 100.14 81.4833 100.784 81.0086 101.259C80.5339 101.733 79.8901 102 79.2188 102H58.125C57.2299 102 56.3714 101.644 55.7385 101.011C55.1056 100.379 54.75 99.5201 54.75 98.625V51.375C54.75 50.4799 55.1056 49.6215 55.7385 48.9885C56.3714 48.3556 57.2299 48 58.125 48H80.5485C81.0019 47.9996 81.4508 48.0905 81.8683 48.2673C82.2858 48.4442 82.6634 48.7034 82.9785 49.0294L94.3016 60.7609C94.9099 61.3902 95.25 62.2312 95.25 63.1065V69.0938C95.25 69.7651 94.9833 70.4089 94.5086 70.8836C94.0339 71.3583 93.3901 71.625 92.7188 71.625C92.0474 71.625 91.4036 71.3583 90.9289 70.8836C90.4542 70.4089 90.1875 69.7651 90.1875 69.0938V68.25H80.9062C79.3398 68.25 77.8375 67.6277 76.7299 66.5201C75.6223 65.4125 75 63.9102 75 62.3438V53.0625H59.8125ZM80.0625 53.2988L89.607 63.1875H80.9062C80.6825 63.1875 80.4679 63.0986 80.3096 62.9404C80.1514 62.7821 80.0625 62.5675 80.0625 62.3438V53.2988ZM91.875 98.625C91.2037 98.625 90.5598 98.3583 90.0851 97.8836C89.6104 97.4089 89.3438 96.7651 89.3438 96.0938V91.0313H84.2812C83.6099 91.0313 82.9661 90.7646 82.4914 90.2899C82.0167 89.8152 81.75 89.1713 81.75 88.5C81.75 87.8287 82.0167 87.1848 82.4914 86.7101C82.9661 86.2354 83.6099 85.9688 84.2812 85.9688H89.3438V80.9063C89.3438 80.2349 89.6104 79.5911 90.0851 79.1164C90.5598 78.6417 91.2037 78.375 91.875 78.375C92.5463 78.375 93.1902 78.6417 93.6649 79.1164C94.1396 79.5911 94.4062 80.2349 94.4062 80.9063V85.9688H99.4688C100.14 85.9688 100.784 86.2354 101.259 86.7101C101.733 87.1848 102 87.8287 102 88.5C102 89.1713 101.733 89.8152 101.259 90.2899C100.784 90.7646 100.14 91.0313 99.4688 91.0313H94.4062V96.0938C94.4062 96.7651 94.1396 97.4089 93.6649 97.8836C93.1902 98.3583 92.5463 98.625 91.875 98.625Z" fill="#596066"/>
</g>
<defs>
<clipPath id="clip0_2942_7796">
<rect width="54" height="54" fill="white" transform="translate(48 48)"/>
</clipPath>
</defs>
</svg>
