<svg width="150" height="150" viewBox="0 0 320 512" fill="none" xmlns="http://www.w3.org/2000/svg">
    <!--!Font Awesome Free 6.7.2 by @fontawesome - https://fontawesome.com License - https://fontawesome.com/license/free Copyright 2025 Fonticons, Inc.-->
    <path transform="scale(0.7) translate(70, 110)" d="M80 160c0-35.3 28.7-64 64-64h32c35.3 0 64 28.7 64 64v3.6c0 21.8-11.1 42.1-29.4 53.8l-42.2 27.1c-25.2 16.2-40.4 44.1-40.4 74v1.4c0 17.7 14.3 32 32 32s32-14.3 32-32v-1.4c0-8.2 4.2-15.8 11-20.2l42.2-27.1c36.6-23.6 58.8-64.1 58.8-107.7v-3.6c0-70.7-57.3-128-128-128h-32C73.3 32 16 89.3 16 160c0 17.7 14.3 32 32 32s32-14.3 32-32zm80 320a40 40 0 1 0 0-80 40 40 0 1 0 0 80z" fill="#596066"/>

    <!-- 외곽 원 테두리 추가 -->
    <circle cx="160" cy="256" r="250" stroke="#596066" stroke-width="10" fill="none"/>
</svg>
