<svg width="20" height="21" viewBox="0 0 20 21" fill="none" xmlns="http://www.w3.org/2000/svg">
<path fill-rule="evenodd" clip-rule="evenodd" d="M8 4.366C6.93913 4.366 5.92172 4.78743 5.17157 5.53757C4.42143 6.28772 4 7.30513 4 8.366C4 9.42687 4.42143 10.4443 5.17157 11.1944C5.92172 11.9446 6.93913 12.366 8 12.366C9.06087 12.366 10.0783 11.9446 10.8284 11.1944C11.5786 10.4443 12 9.42687 12 8.366C12 7.30513 11.5786 6.28772 10.8284 5.53757C10.0783 4.78743 9.06087 4.366 8 4.366ZM2 8.366C1.99988 7.4217 2.22264 6.49071 2.65017 5.64874C3.0777 4.80677 3.69792 4.0776 4.4604 3.52053C5.22287 2.96345 6.10606 2.59421 7.03815 2.44283C7.97023 2.29145 8.92488 2.36221 9.82446 2.64935C10.724 2.93649 11.5432 3.4319 12.2152 4.0953C12.8872 4.75869 13.3931 5.57133 13.6919 6.46713C13.9906 7.36293 14.0737 8.31659 13.9343 9.25055C13.795 10.1845 13.4372 11.0724 12.89 11.842L17.707 16.659C17.8892 16.8476 17.99 17.1002 17.9877 17.3624C17.9854 17.6246 17.8802 17.8754 17.6948 18.0608C17.5094 18.2462 17.2586 18.3514 16.9964 18.3537C16.7342 18.356 16.4816 18.2552 16.293 18.073L11.477 13.257C10.5794 13.8953 9.52335 14.2742 8.42468 14.3521C7.326 14.4301 6.22707 14.2041 5.2483 13.699C4.26953 13.1938 3.44869 12.429 2.87572 11.4884C2.30276 10.5477 1.99979 9.46743 2 8.366Z" fill="#385752"/>
</svg>
