<svg width="20" height="20" viewBox="0 0 20 20" fill="none" xmlns="http://www.w3.org/2000/svg">
<path d="M18 10.4149L18 4.52448C18 3.29077 18 2.67346 17.782 2.20224C17.5903 1.78774 17.2845 1.45106 16.9082 1.23986C16.4808 1 15.921 1 14.8031 1L5.19691 1C4.079 1 3.52001 0.999999 3.09261 1.23986C2.71628 1.45106 2.40952 1.78775 2.21777 2.20224C2 2.673 2 3.28933 2 4.52064L2 10.4149C2 11.0034 2.00046 11.2978 2.06543 11.5717C2.12301 11.8144 2.21752 12.0441 2.34543 12.2516C2.48977 12.4858 2.69045 12.68 3.09258 13.0676L7.89258 17.6936C8.63919 18.4131 9.01249 18.7727 9.43262 18.9096C9.80281 19.0301 10.1974 19.0301 10.5676 18.9096C10.9874 18.7728 11.3602 18.4136 12.1056 17.6951L16.9072 13.0676C17.3094 12.68 17.51 12.4858 17.6543 12.2516C17.7822 12.0441 17.8775 11.8144 17.935 11.5717C18 11.2978 18 11.0034 18 10.4149Z" fill="#6A9C89"/>
<path d="M5 8.5L8.75 12L15 5" stroke="white" stroke-width="1.5"/>
</svg>
