<svg width="20" height="21" viewBox="0 0 20 21" fill="none" xmlns="http://www.w3.org/2000/svg">
<g id="uil:down-arrow">
<path id="Vector" d="M17.4993 11.7949C17.2783 11.7949 17.0664 11.8827 16.9101 12.039C16.7538 12.1953 16.666 12.4072 16.666 12.6283V15.9616C16.666 16.1826 16.5782 16.3946 16.4219 16.5508C16.2657 16.7071 16.0537 16.7949 15.8327 16.7949H4.16602C3.945 16.7949 3.73304 16.7071 3.57676 16.5508C3.42048 16.3946 3.33268 16.1826 3.33268 15.9616V12.6283C3.33268 12.4072 3.24488 12.1953 3.0886 12.039C2.93232 11.8827 2.72036 11.7949 2.49935 11.7949C2.27834 11.7949 2.06637 11.8827 1.91009 12.039C1.75381 12.1953 1.66602 12.4072 1.66602 12.6283V15.9616C1.66602 16.6246 1.92941 17.2605 2.39825 17.7294C2.86709 18.1982 3.50297 18.4616 4.16602 18.4616H15.8327C16.4957 18.4616 17.1316 18.1982 17.6004 17.7294C18.0693 17.2605 18.3327 16.6246 18.3327 15.9616V12.6283C18.3327 12.4072 18.2449 12.1953 18.0886 12.039C17.9323 11.8827 17.7204 11.7949 17.4993 11.7949ZM9.40768 13.2199C9.48694 13.2958 9.58039 13.3553 9.68268 13.3949C9.78243 13.439 9.89029 13.4618 9.99935 13.4618C10.1084 13.4618 10.2163 13.439 10.316 13.3949C10.4183 13.3553 10.5118 13.2958 10.591 13.2199L13.9243 9.88659C14.0813 9.72967 14.1694 9.51684 14.1694 9.29492C14.1694 9.073 14.0813 8.86017 13.9243 8.70326C13.7674 8.54634 13.5546 8.45818 13.3327 8.45818C13.1108 8.45818 12.8979 8.54634 12.741 8.70326L10.8327 10.6199V2.62826C10.8327 2.40724 10.7449 2.19528 10.5886 2.039C10.4323 1.88272 10.2204 1.79492 9.99935 1.79492C9.77833 1.79492 9.56637 1.88272 9.41009 2.039C9.25381 2.19528 9.16602 2.40724 9.16602 2.62826V10.6199L7.25768 8.70326C7.17998 8.62556 7.08774 8.56392 6.98622 8.52187C6.88471 8.47982 6.7759 8.45818 6.66602 8.45818C6.55613 8.45818 6.44733 8.47982 6.34581 8.52187C6.24429 8.56392 6.15205 8.62556 6.07435 8.70326C5.99665 8.78095 5.93502 8.8732 5.89297 8.97471C5.85092 9.07623 5.82927 9.18504 5.82927 9.29492C5.82927 9.4048 5.85092 9.51361 5.89297 9.61513C5.93502 9.71665 5.99665 9.80889 6.07435 9.88659L9.40768 13.2199Z" fill="#6A9C89"/>
</g>
</svg>
