<svg width="40" height="40" viewBox="0 0 20 20" fill="none" xmlns="http://www.w3.org/2000/svg">
<g clip-path="url(#clip0_1560_60634)">
<path d="M16.7164 9.85835C16.7164 13.8975 12.974 17.1718 8.35821 17.1718C7.53038 17.1729 6.70599 17.0654 5.90612 16.8521C5.29597 17.1613 3.89493 17.7548 1.53791 18.1413C1.32896 18.1748 1.17015 17.9575 1.25269 17.7631C1.62254 16.8897 1.95687 15.7258 2.05716 14.6643C0.777313 13.3793 0 11.6972 0 9.85835C0 5.81925 3.74239 2.54492 8.35821 2.54492C12.974 2.54492 16.7164 5.81925 16.7164 9.85835ZM5.22388 9.85835C5.22388 9.58126 5.11381 9.31552 4.91787 9.11959C4.72194 8.92365 4.4562 8.81358 4.1791 8.81358C3.90201 8.81358 3.63627 8.92365 3.44034 9.11959C3.2444 9.31552 3.13433 9.58126 3.13433 9.85835C3.13433 10.1354 3.2444 10.4012 3.44034 10.5971C3.63627 10.7931 3.90201 10.9031 4.1791 10.9031C4.4562 10.9031 4.72194 10.7931 4.91787 10.5971C5.11381 10.4012 5.22388 10.1354 5.22388 9.85835V9.85835ZM9.40298 9.85835C9.40298 9.58126 9.29291 9.31552 9.09698 9.11959C8.90104 8.92365 8.6353 8.81358 8.35821 8.81358C8.08112 8.81358 7.81537 8.92365 7.61944 9.11959C7.42351 9.31552 7.31343 9.58126 7.31343 9.85835C7.31343 10.1354 7.42351 10.4012 7.61944 10.5971C7.81537 10.7931 8.08112 10.9031 8.35821 10.9031C8.6353 10.9031 8.90104 10.7931 9.09698 10.5971C9.29291 10.4012 9.40298 10.1354 9.40298 9.85835V9.85835ZM12.5373 10.9031C12.8144 10.9031 13.0801 10.7931 13.2761 10.5971C13.472 10.4012 13.5821 10.1354 13.5821 9.85835C13.5821 9.58126 13.472 9.31552 13.2761 9.11959C13.0801 8.92365 12.8144 8.81358 12.5373 8.81358C12.2602 8.81358 11.9945 8.92365 11.7985 9.11959C11.6026 9.31552 11.4925 9.58126 11.4925 9.85835C11.4925 10.1354 11.6026 10.4012 11.7985 10.5971C11.9945 10.7931 12.2602 10.9031 12.5373 10.9031V10.9031Z" fill="#596066"/>
</g>
<defs>
<clipPath id="clip0_1560_60634">
<rect width="37" height="37" fill="white" transform="translate(0 1.5)"/>
</clipPath>
</defs>
</svg>
