<svg width="150" height="150" viewBox="0 0 150 150" fill="none" xmlns="http://www.w3.org/2000/svg">
<circle cx="74.9973" cy="74.9973" r="65.1316" stroke="#596066" stroke-width="5.07519"/>
<path d="M93 59.25C93.5967 59.25 94.169 59.4871 94.591 59.909C95.0129 60.331 95.25 60.9033 95.25 61.5C95.25 62.0967 95.0129 62.669 94.591 63.091C94.169 63.5129 93.5967 63.75 93 63.75H90.75L90.7432 63.9098L88.644 93.3195C88.5632 94.4548 88.0552 95.5173 87.2223 96.293C86.3894 97.0688 85.2934 97.5 84.1553 97.5H65.8425C64.7043 97.5 63.6084 97.0688 62.7755 96.293C61.9426 95.5173 61.4346 94.4548 61.3537 93.3195L59.2545 63.912L59.25 63.75H57C56.4033 63.75 55.831 63.5129 55.409 63.091C54.9871 62.669 54.75 62.0967 54.75 61.5C54.75 60.9033 54.9871 60.331 55.409 59.909C55.831 59.4871 56.4033 59.25 57 59.25H93ZM86.2432 63.75H63.7567L65.8448 93H84.1553L86.2432 63.75ZM79.5 52.5C80.0967 52.5 80.669 52.7371 81.091 53.159C81.5129 53.581 81.75 54.1533 81.75 54.75C81.75 55.3467 81.5129 55.919 81.091 56.341C80.669 56.7629 80.0967 57 79.5 57H70.5C69.9033 57 69.331 56.7629 68.909 56.341C68.4871 55.919 68.25 55.3467 68.25 54.75C68.25 54.1533 68.4871 53.581 68.909 53.159C69.331 52.7371 69.9033 52.5 70.5 52.5H79.5Z" fill="#596066"/>
</svg>
