<svg width="150" height="150" viewBox="0 0 150 150" fill="none" xmlns="http://www.w3.org/2000/svg">
<circle cx="75" cy="74.9993" r="65.1316" stroke="#596066" stroke-width="5.07519"/>
<path d="M86.7924 57.1871L94.8137 65.2082M66.25 63.2508H57.8125C57.0666 63.2508 56.3512 63.5471 55.8238 64.0745C55.2963 64.6019 55 65.3173 55 66.0632V94.1876C55 94.9335 55.2963 95.6488 55.8238 96.1763C56.3512 96.7037 57.0666 97 57.8125 97H88.7499C89.4959 97 90.2112 96.7037 90.7387 96.1763C91.2661 95.6488 91.5624 94.9335 91.5624 94.1876V81.5316M98.3377 53.6604C98.8647 54.1871 99.2828 54.8126 99.568 55.501C99.8532 56.1893 100 56.9272 100 57.6723C100 58.4174 99.8532 59.1552 99.568 59.8436C99.2828 60.532 98.8647 61.1574 98.3377 61.6842L79.089 80.9325L69.0625 82.9378L71.0678 72.9115L90.3165 53.6632C90.8429 53.1359 91.468 52.7177 92.1562 52.4323C92.8444 52.1469 93.5821 52 94.3271 52C95.0721 52 95.8098 52.1469 96.498 52.4323C97.1862 52.7177 97.8114 53.1331 98.3377 53.6604Z" stroke="#596066" stroke-width="4" stroke-linecap="round" stroke-linejoin="round"/>
</svg>
