<svg width="20" height="20" viewBox="0 0 20 20" fill="none" xmlns="http://www.w3.org/2000/svg">
<g id="flowbite:edit-outline">
<path id="Vector" d="M13.42 4.53697L15.7967 6.91363M7.33333 6.33363H4.83333C4.61232 6.33363 4.40036 6.42143 4.24408 6.57771C4.0878 6.73399 4 6.94595 4 7.16697V15.5003C4 15.7213 4.0878 15.9333 4.24408 16.0896C4.40036 16.2458 4.61232 16.3336 4.83333 16.3336H14C14.221 16.3336 14.433 16.2458 14.5893 16.0896C14.7455 15.9333 14.8333 15.7213 14.8333 15.5003V11.7503M16.8408 3.49197C16.997 3.64806 17.1208 3.83338 17.2054 4.03735C17.2899 4.24131 17.3334 4.45993 17.3334 4.68072C17.3334 4.9015 17.2899 5.12012 17.2054 5.32409C17.1208 5.52806 16.997 5.71338 16.8408 5.86947L11.1375 11.5728L8.16667 12.167L8.76083 9.19613L14.4642 3.4928C14.6201 3.33658 14.8054 3.21265 15.0093 3.12809C15.2132 3.04353 15.4318 3 15.6525 3C15.8732 3 16.0918 3.04353 16.2957 3.12809C16.4996 3.21265 16.6849 3.33575 16.8408 3.49197Z" stroke="#385752" stroke-width="1.4" stroke-linecap="round" stroke-linejoin="round"/>
</g>
</svg>
