<svg width="18" height="16" viewBox="0 0 18 16" fill="none" xmlns="http://www.w3.org/2000/svg">
<path id="Vector" d="M2.15291 1L15.8468 15M12.8513 12.1614C11.6936 12.7989 10.3852 13.2499 8.99986 13.2499C5.97808 13.2499 3.32232 11.1044 1.79936 9.55646C1.39735 9.14787 1.19638 8.9436 1.06844 8.5426C0.9772 8.25662 0.977172 7.74325 1.06844 7.45727C1.19642 7.05628 1.39781 6.85152 1.80061 6.44221C2.56823 5.66218 3.62339 4.73064 4.86798 3.99841M15.4189 10.3043C15.7039 10.048 15.965 9.7958 16.1993 9.55774L16.2017 9.55507C16.6028 9.14749 16.8039 8.94315 16.9316 8.54303C17.0229 8.25706 17.0227 7.74348 16.9315 7.4575C16.8036 7.05663 16.6024 6.85178 16.2006 6.44347C14.6777 4.89557 12.0216 2.75 8.99986 2.75C8.71101 2.75 8.42549 2.76961 8.14399 2.80642M10.1321 9.3125C9.83035 9.58478 9.43398 9.75 8.99986 9.75C8.05449 9.75 7.28812 8.9665 7.28812 8C7.28812 7.52793 7.47095 7.09969 7.76816 6.78491" stroke="#676E76" stroke-width="2" stroke-linecap="round" stroke-linejoin="round"/>
</svg>
