<svg width="30" height="30" viewBox="0 0 30 30" fill="none" xmlns="http://www.w3.org/2000/svg">
<g id="ic:round-warning">
<path id="Vector" d="M5.58765 26.2496H24.4127C26.3377 26.2496 27.5377 24.1621 26.5752 22.4996L17.1626 6.23711C16.2001 4.57461 13.8002 4.57461 12.8377 6.23711L3.42515 22.4996C2.46265 24.1621 3.66265 26.2496 5.58765 26.2496ZM15.0002 17.4996C14.3127 17.4996 13.7502 16.9371 13.7502 16.2496V13.7496C13.7502 13.0621 14.3127 12.4996 15.0002 12.4996C15.6877 12.4996 16.2501 13.0621 16.2501 13.7496V16.2496C16.2501 16.9371 15.6877 17.4996 15.0002 17.4996ZM16.2501 22.4996H13.7502V19.9996H16.2501V22.4996Z" fill="white"/>
</g>
</svg>
