<svg width="20" height="20" viewBox="0 0 20 20" fill="none" xmlns="http://www.w3.org/2000/svg">
<path d="M8.26476 6.57051L10 2.79567L11.7352 6.57051C11.9173 6.96655 12.2925 7.23916 12.7254 7.28992L16.8517 7.77374L13.7979 10.5905C13.4775 10.8861 13.3341 11.3272 13.4196 11.7546L14.2346 15.8284L10.612 13.7945C10.2319 13.5811 9.76811 13.5811 9.38804 13.7945L5.7654 15.8284L6.58036 11.7546C6.66586 11.3272 6.52254 10.8861 6.20214 10.5905L3.14828 7.77374L7.27458 7.28992C7.70749 7.23916 8.08271 6.96655 8.26476 6.57051ZM14.7088 16.0947L14.7084 16.0944L14.7088 16.0947ZM5.29119 16.0947C5.29129 16.0946 5.29139 16.0946 5.2915 16.0945L5.29119 16.0947Z" stroke="#E63D62" stroke-width="1.5"/>
</svg>
