<svg width="18" height="12" viewBox="0 0 18 12" fill="none" xmlns="http://www.w3.org/2000/svg">
<g id="Vector">
<path d="M1.79936 7.48239C3.32234 8.95658 5.97838 11 9.00018 11C12.022 11 14.6775 8.95658 16.2005 7.48239C16.6021 7.0936 16.8037 6.89853 16.9316 6.5168C17.0228 6.24444 17.0228 5.75565 16.9316 5.48328C16.8037 5.10154 16.6022 4.90645 16.2005 4.51761C14.6775 3.04342 12.022 1 9.00018 1C5.97838 1 3.32234 3.04342 1.79936 4.51761C1.39739 4.90671 1.19638 5.1014 1.06844 5.48328C0.977187 5.75564 0.977187 6.24444 1.06844 6.5168C1.19638 6.89868 1.39739 7.09329 1.79936 7.48239Z" stroke="#676E76" stroke-width="1.5" stroke-linecap="round" stroke-linejoin="round"/>
<path d="M7.28827 6.00003C7.28827 6.92052 8.05465 7.66671 9.00002 7.66671C9.9454 7.66671 10.7118 6.92052 10.7118 6.00003C10.7118 5.07955 9.9454 4.33336 9.00002 4.33336C8.05465 4.33336 7.28827 5.07955 7.28827 6.00003Z" stroke="#676E76" stroke-width="1.5" stroke-linecap="round" stroke-linejoin="round"/>
</g>
</svg>
