<svg width="18" height="18" viewBox="0 0 18 18" fill="none" xmlns="http://www.w3.org/2000/svg">
    <path d="M9.00033 0.667969C13.6028 0.667969 17.3337 4.3988 17.3337 9.0013C17.3337 13.6038 13.6028 17.3346 9.00033 17.3346C4.39783 17.3346 0.666992 13.6038 0.666992 9.0013C0.666992 4.3988 4.39783 0.667969 9.00033 0.667969ZM9.00033 12.3346C8.77931 12.3346 8.56735 12.4224 8.41107 12.5787C8.25479 12.735 8.16699 12.947 8.16699 13.168C8.16699 13.389 8.25479 13.6009 8.41107 13.7572C8.56735 13.9135 8.77931 14.0013 9.00033 14.0013C9.22134 14.0013 9.4333 13.9135 9.58958 13.7572C9.74586 13.6009 9.83366 13.389 9.83366 13.168C9.83366 12.947 9.74586 12.735 9.58958 12.5787C9.4333 12.4224 9.22134 12.3346 9.00033 12.3346ZM9.00033 4.41797C8.19915 4.41797 7.43079 4.73623 6.86427 5.30275C6.29776 5.86927 5.97949 6.63763 5.97949 7.4388C5.97949 7.65982 6.06729 7.87178 6.22357 8.02806C6.37985 8.18434 6.59181 8.27214 6.81283 8.27214C7.03384 8.27214 7.2458 8.18434 7.40208 8.02806C7.55836 7.87178 7.64616 7.65982 7.64616 7.4388C7.64643 7.193 7.71361 6.95191 7.84048 6.74137C7.96735 6.53084 8.14913 6.35882 8.36633 6.24374C8.58353 6.12865 8.82796 6.07486 9.0734 6.08813C9.31885 6.10139 9.55605 6.18121 9.75958 6.31903C9.96312 6.45685 10.1253 6.64747 10.2287 6.87044C10.3322 7.09342 10.373 7.34035 10.3468 7.58475C10.3206 7.82915 10.2283 8.06181 10.0799 8.25777C9.93155 8.45374 9.73262 8.60562 9.50449 8.69713C8.94116 8.92214 8.16699 9.4988 8.16699 10.4596V10.668C8.16699 10.889 8.25479 11.1009 8.41107 11.2572C8.56735 11.4135 8.77931 11.5013 9.00033 11.5013C9.22134 11.5013 9.4333 11.4135 9.58958 11.2572C9.74586 11.1009 9.83366 10.889 9.83366 10.668C9.83366 10.4646 9.87533 10.363 10.0512 10.2763L10.1237 10.243C10.7743 9.98121 11.3137 9.50126 11.6493 8.8854C11.9848 8.26954 12.0957 7.55612 11.9629 6.86746C11.8301 6.17879 11.4619 5.55777 10.9214 5.11086C10.3808 4.66395 9.70168 4.41899 9.00033 4.41797Z" fill="#676E76"/>
</svg>
