<svg width="38" height="38" viewBox="0 0 38 38" fill="none" xmlns="http://www.w3.org/2000/svg">
<g id="ic:round-warning">
<path id="Vector" d="M7.07704 33.2498H30.922C33.3604 33.2498 34.8804 30.6057 33.6612 28.4998L21.7387 7.90066C20.5195 5.79483 17.4795 5.79483 16.2604 7.90066L4.33787 28.4998C3.11871 30.6057 4.63871 33.2498 7.07704 33.2498ZM18.9995 22.1665C18.1287 22.1665 17.4162 21.454 17.4162 20.5832V17.4165C17.4162 16.5457 18.1287 15.8332 18.9995 15.8332C19.8704 15.8332 20.5829 16.5457 20.5829 17.4165V20.5832C20.5829 21.454 19.8704 22.1665 18.9995 22.1665ZM20.5829 28.4998H17.4162V25.3332H20.5829V28.4998Z" fill="#91524B"/>
</g>
</svg>
