<svg width="150" height="150" viewBox="0 0 150 150" fill="none" xmlns="http://www.w3.org/2000/svg">
<g clip-path="url(#clip0_466_60)">
<path d="M75.6042 79.7219C76.4352 79.7219 77.2322 79.401 77.8198 78.8297C78.4074 78.2584 78.7375 77.4836 78.7375 76.6756V58.3979C78.7375 57.5899 78.4074 56.8151 77.8198 56.2438C77.2322 55.6725 76.4352 55.3516 75.6042 55.3516C74.7732 55.3516 73.9762 55.6725 73.3886 56.2438C72.801 56.8151 72.4708 57.5899 72.4708 58.3979V76.6756C72.4708 77.4836 72.801 78.2584 73.3886 78.8297C73.9762 79.401 74.7732 79.7219 75.6042 79.7219ZM75.6042 91.9071C76.3788 91.9071 77.1361 91.6838 77.7801 91.2654C78.4242 90.847 78.9262 90.2523 79.2227 89.5565C79.5191 88.8607 79.5967 88.095 79.4456 87.3564C79.2944 86.6177 78.9214 85.9392 78.3737 85.4067C77.8259 84.8741 77.128 84.5115 76.3683 84.3645C75.6085 84.2176 74.821 84.293 74.1053 84.5812C73.3896 84.8694 72.7779 85.3575 72.3476 85.9837C71.9172 86.6099 71.6875 87.3461 71.6875 88.0992C71.6875 89.1092 72.1001 90.0777 72.8347 90.7918C73.5692 91.5059 74.5654 91.9071 75.6042 91.9071Z" fill="#596066"/>
</g>
<circle cx="74.9973" cy="74.9973" r="65.1316" stroke="#596066" stroke-width="5.07519"/>
<defs>
<clipPath id="clip0_466_60">
<rect width="47" height="47" fill="white" transform="translate(52 51)"/>
</clipPath>
</defs>
</svg>
