<svg width="20" height="21" viewBox="0 0 20 21" fill="none" xmlns="http://www.w3.org/2000/svg">
<path d="M7.01352 6.87891H3.50169L3 7.3806V17.4144L3.50169 17.9161H14.5389L15.0406 17.4144V14.4033H14.0372V16.9127H4.00338V7.88229H7.01352V6.87891Z" fill="white"/>
<path fill-rule="evenodd" clip-rule="evenodd" d="M8.0151 13.9012H7.01172V11.3927C7.01148 10.2362 7.41085 9.11509 8.14222 8.21915C8.87359 7.32322 9.89206 6.70749 11.0252 6.47618V5.22096C11.0252 4.94953 11.1068 4.68436 11.2593 4.45988C11.4119 4.23539 11.6285 4.06196 11.8808 3.96211C12.1332 3.86226 12.4098 3.84059 12.6747 3.89992C12.9395 3.95926 13.1805 4.09685 13.3661 4.29484L17.0244 8.19798V9.57061L13.3661 13.4738C13.1804 13.6718 12.9394 13.8094 12.6744 13.8687C12.4095 13.928 12.1328 13.9063 11.8804 13.8063C11.6279 13.7063 11.4114 13.5327 11.2589 13.3081C11.1064 13.0835 11.025 12.8181 11.0252 12.5466V11.4931C10.0891 11.7048 9.63656 12.2065 9.38772 12.642C9.17036 13.0281 9.04407 13.4588 9.01848 13.9012H8.0151ZM12.0286 7.37923C10.9642 7.37923 9.94331 7.80208 9.19063 8.55476C8.43795 9.30744 8.0151 10.3283 8.0151 11.3927V12.8978H8.19169C8.33016 12.4533 8.57699 11.9296 9.01848 11.476C9.46197 11.0195 10.1021 10.6342 11.0252 10.4726C11.3568 10.4169 11.6924 10.3891 12.0286 10.3894V12.5476C12.0287 12.6178 12.0498 12.6862 12.0892 12.7442C12.1287 12.8022 12.1846 12.847 12.2498 12.8728C12.315 12.8987 12.3864 12.9043 12.4548 12.8891C12.5233 12.8739 12.5856 12.8385 12.6337 12.7874L16.293 8.8843L12.6337 4.98115C12.5855 4.93006 12.5231 4.89461 12.4546 4.87942C12.386 4.86423 12.3145 4.86998 12.2493 4.89594C12.1841 4.9219 12.1282 4.96687 12.0888 5.025C12.0495 5.08314 12.0285 5.15176 12.0286 5.22196V7.37923Z" fill="white"/>
</svg>
