<svg width="24" height="24" viewBox="0 0 24 24" fill="none" xmlns="http://www.w3.org/2000/svg">
<g id="mingcute:delete-line">
<g id="Group">
<path id="Vector" d="M20 4.88805C20.2652 4.88805 20.5196 4.98948 20.7071 5.17002C20.8946 5.35056 21 5.59542 21 5.85074C21 6.10606 20.8946 6.35092 20.7071 6.53146C20.5196 6.712 20.2652 6.81342 20 6.81342H19L18.997 6.88177L18.064 19.465C18.0281 19.9508 17.8023 20.4054 17.4321 20.7373C17.0619 21.0692 16.5749 21.2537 16.069 21.2537H7.93C7.42414 21.2537 6.93707 21.0692 6.56688 20.7373C6.1967 20.4054 5.97092 19.9508 5.935 19.465L5.002 6.88274L5 6.81342H4C3.73478 6.81342 3.48043 6.712 3.29289 6.53146C3.10536 6.35092 3 6.10606 3 5.85074C3 5.59542 3.10536 5.35056 3.29289 5.17002C3.48043 4.98948 3.73478 4.88805 4 4.88805H20ZM16.997 6.81342H7.003L7.931 19.3283H16.069L16.997 6.81342ZM14 2C14.2652 2 14.5196 2.10143 14.7071 2.28196C14.8946 2.4625 15 2.70736 15 2.96268C15 3.218 14.8946 3.46287 14.7071 3.64341C14.5196 3.82394 14.2652 3.92537 14 3.92537H10C9.73478 3.92537 9.48043 3.82394 9.29289 3.64341C9.10536 3.46287 9 3.218 9 2.96268C9 2.70736 9.10536 2.4625 9.29289 2.28196C9.48043 2.10143 9.73478 2 10 2H14Z" fill="#596066"/>
</g>
</g>
</svg>
