<svg width="20" height="20" viewBox="0 0 20 20" fill="none" xmlns="http://www.w3.org/2000/svg">
<g id="tabler:bell-filled">
<path id="Vector" d="M11.8621 15.8337C12.583 15.8337 12.9638 16.687 12.483 17.2237C12.1703 17.5729 11.7876 17.8522 11.3597 18.0435C10.9318 18.2348 10.4683 18.3336 9.99963 18.3337C9.53092 18.3336 9.06749 18.2348 8.63959 18.0435C8.21168 17.8522 7.82892 17.5729 7.5163 17.2237C7.0563 16.7103 7.38463 15.9078 8.04463 15.8395L8.1363 15.8345L11.8621 15.8337ZM9.99963 1.66699C11.1313 1.66699 12.088 2.41949 12.3955 3.45116L12.4338 3.59366L12.4405 3.62949C13.3593 4.14759 14.1422 4.87605 14.7251 5.75516C15.308 6.63427 15.6742 7.639 15.7938 8.68699L15.8171 8.92616L15.833 9.16699V11.6095L15.8505 11.7228C15.9646 12.3368 16.3044 12.8859 16.803 13.262L16.9421 13.3595L17.0771 13.442C17.7938 13.8478 17.5438 14.9137 16.763 14.9953L16.6663 15.0003H3.33296C2.4763 15.0003 2.17713 13.8637 2.92213 13.442C3.23966 13.2623 3.514 13.0153 3.72591 12.7183C3.93782 12.4213 4.08216 12.0815 4.1488 11.7228L4.1663 11.6037L4.16713 9.12866C4.21794 8.04023 4.53476 6.98083 5.08987 6.04322C5.64497 5.1056 6.42144 4.31833 7.3513 3.75033L7.55796 3.62866L7.5663 3.59283C7.68385 3.09435 7.95166 2.644 8.3335 2.3027C8.71535 1.96139 9.19281 1.74559 9.7013 1.68449L9.85296 1.67033L9.99963 1.66699Z" fill="#676E76"/>
</g>
</svg>
