<svg width="20" height="20" viewBox="0 0 40 40" fill="none" xmlns="http://www.w3.org/2000/svg">
<g id="tabler:bell-filled">
<path id="Vector" d="M23.7243 31.6654C25.1659 31.6654 25.9276 33.372 24.9659 34.4454C24.3407 35.1438 23.5752 35.7025 22.7193 36.085C21.8635 36.4676 20.9367 36.6653 19.9993 36.6654C19.0618 36.6653 18.135 36.4676 17.2792 36.085C16.4234 35.7025 15.6578 35.1438 15.0326 34.4454C14.1126 33.4187 14.7693 31.8137 16.0893 31.677L16.2726 31.667L23.7243 31.6654ZM19.9993 3.33203C22.2626 3.33203 24.1759 4.83703 24.7909 6.90036L24.8676 7.18536L24.8809 7.25703C26.7185 8.29322 28.2844 9.75014 29.4501 11.5084C30.6159 13.2666 31.3484 15.276 31.5876 17.372L31.6343 17.8504L31.6659 18.332V23.217L31.7009 23.4437C31.9291 24.6717 32.6087 25.7699 33.6059 26.522L33.8843 26.717L34.1543 26.882C35.5876 27.6937 35.0876 29.8254 33.5259 29.9887L33.3326 29.9987H6.66593C4.95259 29.9987 4.35426 27.7254 5.84426 26.882C6.47931 26.5226 7.02801 26.0286 7.45183 25.4346C7.87565 24.8407 8.16433 24.1611 8.29759 23.4437L8.33259 23.2054L8.33426 18.2554C8.43588 16.0785 9.06953 13.9597 10.1797 12.0845C11.2899 10.2092 12.8429 8.63471 14.7026 7.4987L15.1159 7.25536L15.1326 7.1837C15.3677 6.18675 15.9033 5.28605 16.667 4.60344C17.4307 3.92083 18.3856 3.48923 19.4026 3.36703L19.7059 3.3387L19.9993 3.33203Z" fill="#6A9C89"/>
</g>
</svg>
