<svg width="17" height="18" viewBox="0 0 17 18" fill="none" xmlns="http://www.w3.org/2000/svg">
<g id="information-circle">
<path id="Vector" d="M9.20108 11.6331H8.49328V8.80187H7.78547M8.49328 5.97066H8.50036M14.8635 8.80187C14.8635 9.63842 14.6987 10.4668 14.3786 11.2397C14.0585 12.0125 13.5892 12.7148 12.9977 13.3063C12.4062 13.8978 11.7039 14.3671 10.9311 14.6872C10.1582 15.0073 9.32983 15.1721 8.49328 15.1721C7.65673 15.1721 6.82837 15.0073 6.0555 14.6872C5.28262 14.3671 4.58037 13.8978 3.98884 13.3063C3.39731 12.7148 2.92809 12.0125 2.60795 11.2397C2.28782 10.4668 2.12305 9.63842 2.12305 8.80187C2.12305 7.11238 2.79419 5.49209 3.98884 4.29744C5.18349 3.10279 6.80379 2.43164 8.49328 2.43164C10.1828 2.43164 11.8031 3.10279 12.9977 4.29744C14.1924 5.49209 14.8635 7.11238 14.8635 8.80187Z" stroke="#91524B" stroke-width="1.48639" stroke-linecap="round" stroke-linejoin="round"/>
</g>
</svg>
