<svg width="19" height="19" viewBox="0 0 19 19" fill="none" xmlns="http://www.w3.org/2000/svg">
<path fill-rule="evenodd" clip-rule="evenodd" d="M12.4942 13.037C12.2623 12.8052 12.2623 12.4292 12.4942 12.1973L15.1916 9.5L12.4942 6.80266C12.2623 6.57078 12.2623 6.19484 12.4942 5.96297C12.7261 5.73109 13.102 5.73109 13.3339 5.96297L16.4511 9.08016C16.683 9.31203 16.683 9.68797 16.4511 9.91985L13.3339 13.037C13.102 13.2689 12.7261 13.2689 12.4942 13.037Z" fill="#596066"/>
<path fill-rule="evenodd" clip-rule="evenodd" d="M7.125 9.5C7.125 9.17208 7.39083 8.90625 7.71875 8.90625L16.0313 8.90625C16.3592 8.90625 16.625 9.17208 16.625 9.5C16.625 9.82792 16.3592 10.0938 16.0312 10.0938L7.71875 10.0938C7.39083 10.0938 7.125 9.82792 7.125 9.5Z" fill="#596066"/>
<path fill-rule="evenodd" clip-rule="evenodd" d="M8.3125 2.96875C8.3125 3.29667 8.04667 3.5625 7.71875 3.5625L3.5625 3.5625L3.5625 15.4375L7.71875 15.4375C8.04667 15.4375 8.3125 15.7033 8.3125 16.0312C8.3125 16.3592 8.04667 16.625 7.71875 16.625L3.5625 16.625C3.24756 16.625 2.94551 16.4999 2.72281 16.2772C2.50011 16.0545 2.375 15.7524 2.375 15.4375L2.375 3.5625C2.375 3.24756 2.50011 2.94551 2.72281 2.72281C2.94551 2.50011 3.24756 2.375 3.5625 2.375L7.71875 2.375C8.04667 2.375 8.3125 2.64083 8.3125 2.96875Z" fill="#596066"/>
</svg>
