<svg width="26" height="26" viewBox="0 0 26 26" fill="none" xmlns="http://www.w3.org/2000/svg">
<rect x="1" y="1" width="24" height="24" rx="12" fill="white"/>
<rect x="1" y="1" width="24" height="24" rx="12" stroke="#E5E7EA" stroke-width="1.2"/>
<rect x="1" y="1" width="24" height="24" rx="12" fill="#E5E7EA"/>
<path d="M16 12.5C16 12.1022 16.158 11.7206 16.4393 11.4393C16.7206 11.158 17.1022 11 17.5 11C17.8978 11 18.2794 11.158 18.5607 11.4393C18.842 11.7206 19 12.1022 19 12.5C19 12.8978 18.842 13.2794 18.5607 13.5607C18.2794 13.842 17.8978 14 17.5 14C17.1022 14 16.7206 13.842 16.4393 13.5607C16.158 13.2794 16 12.8978 16 12.5ZM11.5 12.5C11.5 12.1022 11.658 11.7206 11.9393 11.4393C12.2206 11.158 12.6022 11 13 11C13.3978 11 13.7794 11.158 14.0607 11.4393C14.342 11.7206 14.5 12.1022 14.5 12.5C14.5 12.8978 14.342 13.2794 14.0607 13.5607C13.7794 13.842 13.3978 14 13 14C12.6022 14 12.2206 13.842 11.9393 13.5607C11.658 13.2794 11.5 12.8978 11.5 12.5ZM7 12.5C7 12.1022 7.15804 11.7206 7.43934 11.4393C7.72064 11.158 8.10218 11 8.5 11C8.89782 11 9.27936 11.158 9.56066 11.4393C9.84196 11.7206 10 12.1022 10 12.5C10 12.8978 9.84196 13.2794 9.56066 13.5607C9.27935 13.842 8.89782 14 8.5 14C8.10218 14 7.72064 13.842 7.43934 13.5607C7.15804 13.2794 7 12.8978 7 12.5Z" fill="white"/>
</svg>
