<svg width="20" height="20" viewBox="0 0 20 20" fill="none" xmlns="http://www.w3.org/2000/svg">
<path id="Vector" d="M9.625 0C4.30977 0 0 4.30977 0 9.625C0 14.9402 4.30977 19.25 9.625 19.25C14.9402 19.25 19.25 14.9402 19.25 9.625C19.25 4.30977 14.9402 0 9.625 0ZM9.625 17.6172C5.21211 17.6172 1.63281 14.0379 1.63281 9.625C1.63281 7.71289 2.30527 5.95547 3.42676 4.58047L14.6695 15.8232C13.2945 16.9447 11.5371 17.6172 9.625 17.6172ZM15.8232 14.6695L4.58047 3.42676C5.95547 2.30527 7.71289 1.63281 9.625 1.63281C14.0379 1.63281 17.6172 5.21211 17.6172 9.625C17.6172 11.5371 16.9447 13.2945 15.8232 14.6695Z" fill="#596066"/>
</svg>
