<svg width="64" height="71" viewBox="0 0 64 71" fill="none" xmlns="http://www.w3.org/2000/svg">
<path id="Vector" d="M9.49991 31.7785V13.9118C9.49991 9.74256 9.49991 7.65636 10.3173 6.06391C11.0364 4.66315 12.1829 3.52512 13.5941 2.8114C15.1984 2 17.3002 2 21.5005 2H38.2797C38.7394 2 39.1414 2 39.4995 2.00324M61.9958 24.3333C61.9992 24.6892 61.9993 25.0888 61.9993 25.5456V57.1022C61.9993 61.2633 61.9993 63.344 61.1826 64.9349C60.4636 66.3356 59.314 67.4757 57.9028 68.1894C56.3 69 54.2031 69 50.0109 69L35.7496 69M61.9958 24.3333C61.9856 23.2707 61.9458 22.5979 61.7905 21.9561C61.6068 21.1964 61.3026 20.4702 60.8914 19.8041C60.4276 19.0529 59.7826 18.4109 58.4855 17.1233L46.7651 5.48958C45.4688 4.20287 44.8191 3.558 44.0625 3.09776C43.3914 2.6896 42.6604 2.38805 41.8952 2.20569C41.2483 2.05154 40.5707 2.01291 39.4995 2.00324M61.9958 24.3333H62M61.9958 24.3333H51.4878C47.2957 24.3333 45.1965 24.3333 43.5937 23.5227C42.1825 22.809 41.036 21.6679 40.317 20.2671C39.4995 18.6747 39.4995 16.5915 39.4995 12.4222V2.00324M20.7498 42.9444L28.2497 50.3889M2 69V59.6944L30.1247 31.7778L39.4995 41.0833L11.3749 69H2Z" stroke="#9CA1AD" stroke-width="4" stroke-linecap="round" stroke-linejoin="round"/>
</svg>
