<svg width="17" height="17" viewBox="0 0 17 17" fill="none" xmlns="http://www.w3.org/2000/svg">
<path d="M10.9964 14.3594V13.026C10.9964 12.3188 10.7155 11.6405 10.2154 11.1404C9.71527 10.6403 9.037 10.3594 8.32975 10.3594H4.32975C3.62251 10.3594 2.94423 10.6403 2.44413 11.1404C1.94404 11.6405 1.66309 12.3188 1.66309 13.026V14.3594" stroke="#9333EA" stroke-width="1.33333" stroke-linecap="round" stroke-linejoin="round"/>
<path d="M6.32975 7.69271C7.80251 7.69271 8.99642 6.4988 8.99642 5.02604C8.99642 3.55328 7.80251 2.35938 6.32975 2.35938C4.85699 2.35938 3.66309 3.55328 3.66309 5.02604C3.66309 6.4988 4.85699 7.69271 6.32975 7.69271Z" stroke="#9333EA" stroke-width="1.33333" stroke-linecap="round" stroke-linejoin="round"/>
<path d="M14.9971 14.3586V13.0253C14.9966 12.4345 14.8 11.8605 14.438 11.3935C14.076 10.9266 13.5692 10.593 12.9971 10.4453" stroke="#9333EA" stroke-width="1.33333" stroke-linecap="round" stroke-linejoin="round"/>
<path d="M10.9971 2.44531C11.5707 2.59218 12.0791 2.92578 12.4422 3.39352C12.8052 3.86126 13.0023 4.43653 13.0023 5.02865C13.0023 5.62076 12.8052 6.19603 12.4422 6.66377C12.0791 7.13151 11.5707 7.46511 10.9971 7.61198" stroke="#9333EA" stroke-width="1.33333" stroke-linecap="round" stroke-linejoin="round"/>
</svg>
