<svg width="20" height="20" viewBox="0 0 20 20" fill="none" xmlns="http://www.w3.org/2000/svg">
<g id="mynaui:plus-solid">
<path id="Vector" d="M10.8333 5.00008C10.8333 4.77907 10.7455 4.56711 10.5892 4.41083C10.4329 4.25455 10.221 4.16675 9.99996 4.16675C9.77895 4.16675 9.56698 4.25455 9.4107 4.41083C9.25442 4.56711 9.16663 4.77907 9.16663 5.00008V9.16675H4.99996C4.77895 9.16675 4.56698 9.25455 4.4107 9.41083C4.25442 9.56711 4.16663 9.77907 4.16663 10.0001C4.16663 10.2211 4.25442 10.4331 4.4107 10.5893C4.56698 10.7456 4.77895 10.8334 4.99996 10.8334H9.16663V15.0001C9.16663 15.2211 9.25442 15.4331 9.4107 15.5893C9.56698 15.7456 9.77895 15.8334 9.99996 15.8334C10.221 15.8334 10.4329 15.7456 10.5892 15.5893C10.7455 15.4331 10.8333 15.2211 10.8333 15.0001V10.8334H15C15.221 10.8334 15.4329 10.7456 15.5892 10.5893C15.7455 10.4331 15.8333 10.2211 15.8333 10.0001C15.8333 9.77907 15.7455 9.56711 15.5892 9.41083C15.4329 9.25455 15.221 9.16675 15 9.16675H10.8333V5.00008Z" fill="white"/>
</g>
</svg>
