<svg width="20" height="20" viewBox="0 0 20 20" fill="none" xmlns="http://www.w3.org/2000/svg">
<g clip-path="url(#clip0_120_4637)">
<path d="M10.1824 1.66406H9.81569C9.37366 1.66406 8.94974 1.83966 8.63718 2.15222C8.32462 2.46478 8.14902 2.8887 8.14902 3.33073V3.48073C8.14872 3.773 8.07157 4.06005 7.92531 4.31309C7.77904 4.56613 7.56881 4.77626 7.31569 4.9224L6.95736 5.13073C6.70399 5.27701 6.41659 5.35402 6.12402 5.35402C5.83146 5.35402 5.54406 5.27701 5.29069 5.13073L5.16569 5.06406C4.78325 4.84345 4.32889 4.7836 3.90236 4.89765C3.47583 5.01171 3.11198 5.29034 2.89069 5.6724L2.70736 5.98906C2.48674 6.37151 2.42689 6.82587 2.54095 7.25239C2.655 7.67892 2.93364 8.04277 3.31569 8.26406L3.44069 8.3474C3.69259 8.49282 3.90204 8.70164 4.04823 8.95309C4.19443 9.20454 4.27227 9.48987 4.27403 9.78073V10.2057C4.27519 10.4994 4.19873 10.7882 4.05239 11.0428C3.90606 11.2974 3.69503 11.5089 3.44069 11.6557L3.31569 11.7307C2.93364 11.952 2.655 12.3159 2.54095 12.7424C2.42689 13.1689 2.48674 13.6233 2.70736 14.0057L2.89069 14.3224C3.11198 14.7044 3.47583 14.9831 3.90236 15.0971C4.32889 15.2112 4.78325 15.1513 5.16569 14.9307L5.29069 14.8641C5.54406 14.7178 5.83146 14.6408 6.12402 14.6408C6.41659 14.6408 6.70399 14.7178 6.95736 14.8641L7.31569 15.0724C7.56881 15.2185 7.77904 15.4287 7.92531 15.6817C8.07157 15.9347 8.14872 16.2218 8.14902 16.5141V16.6641C8.14902 17.1061 8.32462 17.53 8.63718 17.8426C8.94974 18.1551 9.37366 18.3307 9.81569 18.3307H10.1824C10.6244 18.3307 11.0483 18.1551 11.3609 17.8426C11.6734 17.53 11.849 17.1061 11.849 16.6641V16.5141C11.8493 16.2218 11.9265 15.9347 12.0727 15.6817C12.219 15.4287 12.4292 15.2185 12.6824 15.0724L13.0407 14.8641C13.2941 14.7178 13.5815 14.6408 13.874 14.6408C14.1666 14.6408 14.454 14.7178 14.7074 14.8641L14.8324 14.9307C15.2148 15.1513 15.6692 15.2112 16.0957 15.0971C16.5222 14.9831 16.8861 14.7044 17.1074 14.3224L17.2907 13.9974C17.5113 13.6149 17.5712 13.1606 17.4571 12.7341C17.343 12.3075 17.0644 11.9437 16.6824 11.7224L16.5574 11.6557C16.303 11.5089 16.092 11.2974 15.9457 11.0428C15.7993 10.7882 15.7229 10.4994 15.724 10.2057V9.78906C15.7229 9.49538 15.7993 9.2066 15.9457 8.95197C16.092 8.69734 16.303 8.4859 16.5574 8.33906L16.6824 8.26406C17.0644 8.04277 17.343 7.67892 17.4571 7.25239C17.5712 6.82587 17.5113 6.37151 17.2907 5.98906L17.1074 5.6724C16.8861 5.29034 16.5222 5.01171 16.0957 4.89765C15.6692 4.7836 15.2148 4.84345 14.8324 5.06406L14.7074 5.13073C14.454 5.27701 14.1666 5.35402 13.874 5.35402C13.5815 5.35402 13.2941 5.27701 13.0407 5.13073L12.6824 4.9224C12.4292 4.77626 12.219 4.56613 12.0727 4.31309C11.9265 4.06005 11.8493 3.773 11.849 3.48073V3.33073C11.849 2.8887 11.6734 2.46478 11.3609 2.15222C11.0483 1.83966 10.6244 1.66406 10.1824 1.66406Z" stroke="currentColor" stroke-width="1.66667" stroke-linecap="round" stroke-linejoin="round"/>
<path d="M10 12.5C11.3807 12.5 12.5 11.3807 12.5 10C12.5 8.61929 11.3807 7.5 10 7.5C8.61929 7.5 7.5 8.61929 7.5 10C7.5 11.3807 8.61929 12.5 10 12.5Z" stroke="currentColor" stroke-width="1.66667" stroke-linecap="round" stroke-linejoin="round"/>
</g>
<defs>
<clipPath id="clip0_120_4637">
<rect width="20" height="20" fill="white"/>
</clipPath>
</defs>
</svg>
