<svg width="20" height="20" viewBox="0 0 20 20" fill="none" xmlns="http://www.w3.org/2000/svg">
<g clip-path="url(#clip0_120_4611)">
<path d="M13.3346 17.5V15.8333C13.3346 14.9493 12.9834 14.1014 12.3583 13.4763C11.7332 12.8512 10.8854 12.5 10.0013 12.5H5.0013C4.11725 12.5 3.2694 12.8512 2.64428 13.4763C2.01916 14.1014 1.66797 14.9493 1.66797 15.8333V17.5" stroke="currentColor" stroke-width="1.66667" stroke-linecap="round" stroke-linejoin="round"/>
<path d="M7.5013 9.16667C9.34225 9.16667 10.8346 7.67428 10.8346 5.83333C10.8346 3.99238 9.34225 2.5 7.5013 2.5C5.66035 2.5 4.16797 3.99238 4.16797 5.83333C4.16797 7.67428 5.66035 9.16667 7.5013 9.16667Z" stroke="currentColor" stroke-width="1.66667" stroke-linecap="round" stroke-linejoin="round"/>
<path d="M18.332 17.501V15.8344C18.3315 15.0958 18.0857 14.3784 17.6332 13.7946C17.1807 13.2109 16.5471 12.794 15.832 12.6094" stroke="currentColor" stroke-width="1.66667" stroke-linecap="round" stroke-linejoin="round"/>
<path d="M13.332 2.60938C14.049 2.79296 14.6846 3.20996 15.1384 3.79463C15.5922 4.37931 15.8386 5.0984 15.8386 5.83854C15.8386 6.57868 15.5922 7.29777 15.1384 7.88245C14.6846 8.46712 14.049 8.88412 13.332 9.06771" stroke="currentColor" stroke-width="1.66667" stroke-linecap="round" stroke-linejoin="round"/>
</g>
<defs>
<clipPath id="clip0_120_4611">
<rect width="20" height="20" fill="white"/>
</clipPath>
</defs>
</svg>
